<?xml version="1.0" standalone="no"?>
<!DOCTYPE svg PUBLIC "-//W3C//DTD SVG 20010904//EN"
 "http://www.w3.org/TR/2001/REC-SVG-20010904/DTD/svg10.dtd">
<svg version="1.0" xmlns="http://www.w3.org/2000/svg"
 width="512.000000pt" height="512.000000pt" viewBox="0 0 512.000000 512.000000"
 preserveAspectRatio="xMidYMid meet">
<metadata>
Created by potrace 1.16, written by Peter Selinger 2001-2019
</metadata>
<g transform="translate(0.000000,512.000000) scale(0.100000,-0.100000)"
fill="#000000" stroke="none">
<path d="M606 5105 c-120 -42 -211 -194 -192 -319 20 -129 197 -428 382 -644
l73 -85 -40 -29 c-73 -52 -200 -181 -264 -266 -122 -163 -216 -381 -249 -581
-20 -120 -21 -337 -1 -459 29 -181 108 -379 214 -537 53 -80 212 -249 281
-300 l47 -35 -34 -112 c-41 -132 -86 -345 -104 -485 -19 -147 -17 -455 4 -588
23 -147 70 -322 108 -401 43 -91 124 -171 223 -220 l80 -39 1425 0 1426 0 78
37 c100 48 181 127 225 220 39 81 86 255 109 403 20 133 23 443 4 588 -18 140
-63 353 -104 485 l-34 112 47 35 c69 51 228 220 281 300 106 158 185 356 214
537 19 120 19 341 0 454 -36 207 -127 423 -249 584 -65 87 -192 215 -265 268
l-40 29 73 85 c182 212 349 490 377 628 29 138 -68 303 -199 340 -94 26 -146
16 -414 -81 -293 -105 -401 -134 -553 -149 -76 -8 -404 -10 -1050 -7 -1116 4
-982 -10 -1443 154 -234 83 -270 93 -330 93 -37 -1 -84 -7 -106 -15z m295
-361 c355 -129 462 -156 689 -174 90 -8 446 -10 1070 -8 855 4 943 5 1030 22
125 24 274 69 499 150 102 36 186 64 188 62 15 -15 -144 -272 -243 -394 -284
-351 -741 -708 -1303 -1016 -235 -129 -288 -132 -494 -26 -522 269 -1061 684
-1341 1032 -121 149 -280 408 -252 408 2 0 73 -25 157 -56z m225 -935 c10 -12
61 -55 112 -97 l93 -75 -68 -40 c-86 -51 -217 -182 -266 -267 -63 -109 -89
-206 -95 -352 -5 -157 12 -244 73 -366 52 -103 116 -183 202 -251 272 -216
676 -219 936 -7 l54 44 38 -94 c67 -166 197 -359 273 -406 49 -30 120 -29 170
4 78 52 215 261 277 424 l28 72 54 -44 c208 -170 525 -206 780 -90 167 77 311
225 381 393 71 168 71 390 2 576 -50 133 -185 290 -318 368 l-61 35 106 90
c58 49 111 93 119 98 16 13 142 -82 219 -165 111 -120 203 -288 247 -449 20
-73 23 -109 23 -260 0 -203 -16 -280 -89 -436 -60 -125 -115 -205 -210 -300
-95 -95 -175 -150 -300 -210 -114 -54 -210 -80 -340 -94 -97 -11 -125 -9 -321
16 -73 9 -112 -11 -176 -91 -127 -158 -306 -245 -510 -245 -200 0 -382 87
-505 241 -67 84 -105 104 -179 95 -197 -25 -224 -27 -323 -16 -249 26 -462
128 -638 304 -95 95 -150 175 -210 300 -73 156 -89 233 -89 436 0 151 3 187
23 260 43 156 132 321 238 439 53 59 201 181 220 181 6 0 19 -9 30 -21z m687
-507 c78 -49 161 -99 184 -112 49 -27 78 -84 91 -180 40 -286 -216 -543 -498
-500 -147 23 -279 122 -343 257 -30 64 -32 74 -32 183 0 109 2 118 32 181 59
119 151 201 271 240 112 36 136 30 295 -69z m1772 74 c122 -32 227 -121 286
-241 33 -67 34 -74 34 -185 0 -109 -2 -119 -32 -183 -101 -214 -349 -315 -563
-231 -103 40 -193 126 -243 232 -30 63 -32 74 -32 182 0 99 3 122 23 166 20
44 32 56 95 92 40 22 122 72 182 111 121 78 150 84 250 57z m-1030 -399 c44 0
100 4 124 8 l44 7 -7 -128 c-4 -71 -14 -166 -22 -210 -22 -127 -108 -354 -134
-354 -27 0 -110 220 -133 355 -18 104 -32 309 -22 325 4 7 19 8 38 4 18 -4 68
-7 112 -7z m-1318 -1317 c117 -38 241 -59 360 -62 51 -2 93 -4 93 -6 0 -1 -14
-30 -31 -63 -139 -277 -247 -722 -266 -1098 l-6 -134 -82 5 c-133 9 -181 46
-221 173 -80 252 -90 584 -28 910 18 96 74 305 82 305 3 0 47 -14 99 -30z
m2776 -62 c102 -363 121 -696 56 -993 -55 -254 -102 -305 -283 -305 l-53 0 -6
133 c-19 374 -127 819 -266 1096 -17 33 -31 62 -31 63 0 2 43 4 95 6 121 3
240 24 352 61 49 16 93 29 99 30 6 1 23 -41 37 -91z m-1823 -247 c149 -58 192
-65 370 -65 128 0 179 4 230 18 111 31 213 74 284 120 l68 45 43 -92 c126
-265 213 -629 232 -959 l6 -118 -863 0 -863 0 6 118 c19 330 106 694 232 959
l43 92 68 -45 c38 -24 102 -57 144 -73z"/>
<path d="M1585 3091 c-11 -5 -33 -23 -49 -40 -38 -40 -48 -126 -21 -178 68
-125 275 -87 286 52 5 66 -1 86 -40 127 -35 38 -43 42 -97 45 -32 1 -68 -1
-79 -6z"/>
<path d="M3404 3091 c-11 -5 -34 -25 -52 -45 -28 -32 -32 -44 -32 -93 0 -96
59 -157 150 -157 92 0 150 61 150 158 0 52 -3 60 -39 98 -35 38 -43 42 -97 45
-32 1 -68 -1 -80 -6z"/>
</g>
</svg>
